HIERARCHY
ROOT Hips
{
	OFFSET 0.000000 83.214638 0.000000
	CHANNELS 6 Xposition Yposition Zposition Xrotation Yrotation Zrotation
	JOINT Pelvis
	{
		OFFSET 0.000000 0.000000 0.000000
		CHANNELS 3 Xrotation Yrotation Zrotation
		JOINT LeftUpLeg
		{
			OFFSET 8.479700 -4.795502 -0.379100
			CHANNELS 3 Xrotation Yrotation Zrotation
			JOINT LeftLeg
			{
				OFFSET 0.024144 -32.555107 0.112900
				CHANNELS 3 Xrotation Yrotation Zrotation
				JOINT LeftFoot
				{
					OFFSET -0.024144 -32.638630 -3.012600
					CHANNELS 3 Xrotation Yrotation Zrotation
					JOINT LeftToeBase
					{
						OFFSET 0.970200 -13.225400 11.864200
						CHANNELS 3 Xrotation Yrotation Zrotation
						End Site
						{
							OFFSET 0.000000 12.319262 0.000000
						}
					}
					JOINT LFootTongue
					{
						OFFSET 1.142400 -1.059800 6.665200
						CHANNELS 3 Xrotation Yrotation Zrotation
						End Site
						{
							OFFSET 0.000000 12.319262 0.000000
						}
					}
				}
				JOINT LeftPantLeg
				{
					OFFSET 0.918482 -16.533964 -2.284700
					CHANNELS 3 Xrotation Yrotation Zrotation
					End Site
					{
						OFFSET 0.350399 24.744368 0.000000
					}
				}
			}
		}
		JOINT RightUpLeg
		{
			OFFSET -8.479700 -4.795502 -0.379100
			CHANNELS 3 Xrotation Yrotation Zrotation
			JOINT RightLeg
			{
				OFFSET -0.023144 -32.555092 0.112900
				CHANNELS 3 Xrotation Yrotation Zrotation
				JOINT RightFoot
				{
					OFFSET 0.023144 -32.638641 -3.012700
					CHANNELS 3 Xrotation Yrotation Zrotation
					JOINT RightToeBase
					{
						OFFSET -0.970200 -13.225400 11.864200
						CHANNELS 3 Xrotation Yrotation Zrotation
						End Site
						{
							OFFSET 0.000000 12.319244 0.000000
						}
					}
					JOINT RFootTongue
					{
						OFFSET -1.142200 -1.059800 6.665200
						CHANNELS 3 Xrotation Yrotation Zrotation
						End Site
						{
							OFFSET 0.000000 12.319243 0.000000
						}
					}
				}
				JOINT RightPantLeg
				{
					OFFSET -0.919482 -16.533978 -2.284800
					CHANNELS 3 Xrotation Yrotation Zrotation
					End Site
					{
						OFFSET -0.350400 24.744419 0.000000
					}
				}
			}
		}
	}
	JOINT Spine
	{
		OFFSET 0.000000 7.722000 1.166200
		CHANNELS 3 Xrotation Yrotation Zrotation
		JOINT Spine1
		{
			OFFSET 0.000000 12.024101 0.248800
			CHANNELS 3 Xrotation Yrotation Zrotation
			JOINT Spine2
			{
				OFFSET 0.000000 11.502998 -0.491200
				CHANNELS 3 Xrotation Yrotation Zrotation
				JOINT Neck
				{
					OFFSET 0.000000 18.430702 -3.123100
					CHANNELS 3 Xrotation Yrotation Zrotation
					JOINT Head
					{
						OFFSET 0.000000 9.051102 1.034000
						CHANNELS 3 Xrotation Yrotation Zrotation
						JOINT HairB
						{
							OFFSET 0.208400 24.786102 24.822300
							CHANNELS 3 Xrotation Yrotation Zrotation
							End Site
							{
								OFFSET 0.000000 32.263779 0.000000
							}
						}
						JOINT HairA
						{
							OFFSET -7.081100 24.428299 23.196600
							CHANNELS 3 Xrotation Yrotation Zrotation
							End Site
							{
								OFFSET 0.000000 32.263779 0.000000
							}
						}
						JOINT Hat
						{
							OFFSET 16.728800 15.048294 -15.439601
							CHANNELS 3 Xrotation Yrotation Zrotation
							End Site
							{
								OFFSET 0.000000 32.263779 0.000000
							}
						}
					}
				}
				JOINT LeftShoulder
				{
					OFFSET 6.197800 13.665199 -4.064700
					CHANNELS 3 Xrotation Yrotation Zrotation
					JOINT LeftArm
					{
						OFFSET 7.778100 -0.187103 -1.709300
						CHANNELS 3 Xrotation Yrotation Zrotation
						JOINT LeftForeArm
						{
							OFFSET 22.049376 0.000000 0.000000
							CHANNELS 3 Xrotation Yrotation Zrotation
							JOINT LeftHand
							{
								OFFSET 23.009392 0.000000 0.000000
								CHANNELS 3 Xrotation Yrotation Zrotation
								JOINT LeftHandThumb1
								{
									OFFSET 3.507191 -2.063065 3.133727
									CHANNELS 3 Xrotation Yrotation Zrotation
									JOINT LeftHandThumb2
									{
										OFFSET 3.101337 -1.790558 1.790558
										CHANNELS 3 Xrotation Yrotation Zrotation
										JOINT LeftHandThumb3
										{
											OFFSET 3.058640 -1.765907 1.765906
											CHANNELS 3 Xrotation Yrotation Zrotation
											End Site
											{
												OFFSET -0.415260 3.926476 -0.049563
											}
										}
									}
								}
								JOINT LeftHandIndex1
								{
									OFFSET 11.334419 -0.901459 3.706815
									CHANNELS 3 Xrotation Yrotation Zrotation
									JOINT LeftHandIndex2
									{
										OFFSET 3.283112 0.000000 0.000000
										CHANNELS 3 Xrotation Yrotation Zrotation
										JOINT LeftHandIndex3
										{
											OFFSET 3.323853 0.000000 0.000000
											CHANNELS 3 Xrotation Yrotation Zrotation
											End Site
											{
												OFFSET -1.135597 3.097809 0.402452
											}
										}
									}
								}
								JOINT LeftHandMiddle1
								{
									OFFSET 11.335861 0.000000 0.000000
									CHANNELS 3 Xrotation Yrotation Zrotation
									JOINT LeftHandMiddle2
									{
										OFFSET 3.410492 0.000000 0.000000
										CHANNELS 3 Xrotation Yrotation Zrotation
										JOINT LeftHandMiddle3
										{
											OFFSET 3.312172 0.000000 0.000000
											CHANNELS 3 Xrotation Yrotation Zrotation
											End Site
											{
												OFFSET -1.150200 3.080154 0.400270
											}
										}
									}
								}
								JOINT LeftHandRing1
								{
									OFFSET 11.514786 -0.013176 -3.003090
									CHANNELS 3 Xrotation Yrotation Zrotation
									JOINT LeftHandRing2
									{
										OFFSET 3.053307 0.000000 0.000000
										CHANNELS 3 Xrotation Yrotation Zrotation
										JOINT LeftHandRing3
										{
											OFFSET 3.295807 0.000000 0.000000
											CHANNELS 3 Xrotation Yrotation Zrotation
											End Site
											{
												OFFSET -1.281006 3.013344 0.375733
											}
										}
									}
								}
								JOINT LeftHandPinky1
								{
									OFFSET 10.518692 -0.960396 -5.730441
									CHANNELS 3 Xrotation Yrotation Zrotation
									JOINT LeftHandPinky2
									{
										OFFSET 2.861649 0.000000 0.000000
										CHANNELS 3 Xrotation Yrotation Zrotation
										JOINT LeftHandPinky3
										{
											OFFSET 2.863380 0.000000 0.000000
											CHANNELS 3 Xrotation Yrotation Zrotation
											End Site
											{
												OFFSET -0.843597 2.711159 0.369971
											}
										}
									}
								}
							}
							JOINT LSleeve
							{
								OFFSET 6.676277 -0.344902 -1.011730
								CHANNELS 3 Xrotation Yrotation Zrotation
								End Site
								{
									OFFSET 0.000000 14.885353 0.000000
								}
							}
						}
					}
				}
				JOINT RightShoulder
				{
					OFFSET -6.197800 13.665199 -4.064700
					CHANNELS 3 Xrotation Yrotation Zrotation
					JOINT RightArm
					{
						OFFSET -7.778100 -0.187103 -1.709300
						CHANNELS 3 Xrotation Yrotation Zrotation
						JOINT RightForeArm
						{
							OFFSET -22.049376 0.000000 0.000000
							CHANNELS 3 Xrotation Yrotation Zrotation
							JOINT RightHand
							{
								OFFSET -23.009392 0.000000 0.000000
								CHANNELS 3 Xrotation Yrotation Zrotation
								JOINT RightHandThumb1
								{
									OFFSET -3.507191 -2.063065 3.133727
									CHANNELS 3 Xrotation Yrotation Zrotation
									JOINT RightHandThumb2
									{
										OFFSET -3.101337 -1.790558 1.790558
										CHANNELS 3 Xrotation Yrotation Zrotation
										JOINT RightHandThumb3
										{
											OFFSET -3.058640 -1.765907 1.765906
											CHANNELS 3 Xrotation Yrotation Zrotation
											End Site
											{
												OFFSET 0.415260 3.926476 -0.049563
											}
										}
									}
								}
								JOINT RightHandIndex1
								{
									OFFSET -11.334419 -0.901459 3.706815
									CHANNELS 3 Xrotation Yrotation Zrotation
									JOINT RightHandIndex2
									{
										OFFSET -3.283112 0.000000 0.000000
										CHANNELS 3 Xrotation Yrotation Zrotation
										JOINT RightHandIndex3
										{
											OFFSET -3.323853 0.000000 0.000000
											CHANNELS 3 Xrotation Yrotation Zrotation
											End Site
											{
												OFFSET 1.135597 3.097809 0.402452
											}
										}
									}
								}
								JOINT RightHandMiddle1
								{
									OFFSET -11.335861 0.000000 0.000000
									CHANNELS 3 Xrotation Yrotation Zrotation
									JOINT RightHandMiddle2
									{
										OFFSET -3.410492 0.000000 0.000000
										CHANNELS 3 Xrotation Yrotation Zrotation
										JOINT RightHandMiddle3
										{
											OFFSET -3.312172 0.000000 0.000000
											CHANNELS 3 Xrotation Yrotation Zrotation
											End Site
											{
												OFFSET 1.150200 3.080154 0.400270
											}
										}
									}
								}
								JOINT RightHandRing1
								{
									OFFSET -11.514786 -0.013176 -3.003090
									CHANNELS 3 Xrotation Yrotation Zrotation
									JOINT RightHandRing2
									{
										OFFSET -3.053307 0.000000 0.000000
										CHANNELS 3 Xrotation Yrotation Zrotation
										JOINT RightHandRing3
										{
											OFFSET -3.295807 0.000000 0.000000
											CHANNELS 3 Xrotation Yrotation Zrotation
											End Site
											{
												OFFSET 1.281006 3.013344 0.375733
											}
										}
									}
								}
								JOINT RightHandPinky1
								{
									OFFSET -10.518692 -0.960396 -5.730441
									CHANNELS 3 Xrotation Yrotation Zrotation
									JOINT RightHandPinky2
									{
										OFFSET -2.861649 0.000000 0.000000
										CHANNELS 3 Xrotation Yrotation Zrotation
										JOINT RightHandPinky3
										{
											OFFSET -2.863380 0.000000 0.000000
											CHANNELS 3 Xrotation Yrotation Zrotation
											End Site
											{
												OFFSET 0.843597 2.711159 0.369971
											}
										}
									}
								}
							}
							JOINT RSleeve
							{
								OFFSET -6.676277 -0.344902 -1.011730
								CHANNELS 3 Xrotation Yrotation Zrotation
								End Site
								{
									OFFSET 0.000000 14.885353 0.000000
								}
							}
						}
					}
				}
				JOINT Backpack
				{
					OFFSET 0.000000 -2.471497 36.677502
					CHANNELS 3 Xrotation Yrotation Zrotation
					End Site
					{
						OFFSET 0.000000 20.427315 0.000000
					}
				}
				JOINT Hood
				{
					OFFSET 0.000000 18.754097 -10.431000
					CHANNELS 3 Xrotation Yrotation Zrotation
					JOINT Hood1
					{
						OFFSET 0.000000 -5.011002 -7.685901
						CHANNELS 3 Xrotation Yrotation Zrotation
						End Site
						{
							OFFSET 0.000000 9.175140 0.000000
						}
					}
				}
				JOINT LHoodieString
				{
					OFFSET 5.250500 16.397697 3.089900
					CHANNELS 3 Xrotation Yrotation Zrotation
					JOINT LHoodieString1
					{
						OFFSET 0.257700 -6.364304 3.694600
						CHANNELS 3 Xrotation Yrotation Zrotation
						JOINT LHoodieString2
						{
							OFFSET 0.000000 -9.643799 2.679100
							CHANNELS 3 Xrotation Yrotation Zrotation
							End Site
							{
								OFFSET 0.000000 10.009018 0.000000
							}
						}
					}
				}
				JOINT RHoodieString
				{
					OFFSET -5.250500 16.397697 3.089900
					CHANNELS 3 Xrotation Yrotation Zrotation
					JOINT RHoodieString1
					{
						OFFSET -0.257700 -6.364304 3.694600
						CHANNELS 3 Xrotation Yrotation Zrotation
						JOINT RHoodieString2
						{
							OFFSET 0.000000 -9.643799 2.679100
							CHANNELS 3 Xrotation Yrotation Zrotation
							End Site
							{
								OFFSET 0.000000 10.009018 0.000000
							}
						}
					}
				}
			}
			JOINT LBackpack_Strap
			{
				OFFSET 15.223200 -7.719803 -6.610900
				CHANNELS 3 Xrotation Yrotation Zrotation
				End Site
				{
					OFFSET 0.000000 16.040596 0.000000
				}
			}
			JOINT RBackpack_Strap
			{
				OFFSET -15.223000 -7.719803 -6.610900
				CHANNELS 3 Xrotation Yrotation Zrotation
				End Site
				{
					OFFSET 0.000000 16.040596 0.000000
				}
			}
		}
	}
	JOINT BoyFacialAnim_Joint
	{
		OFFSET 1.000000 -82.208099 -1.550900
		CHANNELS 3 Xrotation Yrotation Zrotation
		End Site
		{
			OFFSET 0.000000 30.012791 0.000000
		}
	}
}
MOTION
Frames: 4
Frame Time: 0.033333
-3.875900 11.298515 1.000328 88.798600 -10.233171 31.326044 -0.000000 -0.000000 0.000003 -7.113350 31.525561 13.822972 24.785865 6.836467 -5.913095 -26.035098 27.897249 31.053455 0.000002 0.000001 0.000001 0.000002 0.000001 0.000001 0.000000 0.000000 -0.000004 -46.667001 -31.189605 -45.070578 50.474285 5.270089 -3.706990 9.345055 23.582751 3.014801 -0.000002 0.000000 -0.000001 -0.000002 0.000000 -0.000001 -0.000001 0.000000 -0.000001 4.657044 -0.136498 -2.249558 -5.326668 -5.632419 1.930140 -4.832190 -5.868364 1.139932 -32.841482 -3.515967 17.814443 -9.618500 21.620014 3.713375 0.000002 -0.000000 0.000000 0.000002 -0.000000 0.000000 0.000002 -0.000000 0.000000 -28.613773 -32.935018 34.051034 -56.136461 3.945478 -19.907623 0.000258 -103.752745 0.000246 -110.449521 -37.526511 52.181710 2.772714 4.562977 4.516711 17.763230 0.897652 6.886925 -0.000000 -0.000001 -0.000000 -1.137904 2.142787 -32.304589 2.967349 5.093248 -60.429013 -0.000003 0.000001 -0.000002 0.423868 5.307828 -48.339110 3.916478 5.523043 -70.661415 0.000003 -0.000000 0.000000 -0.904752 5.113693 -59.247581 3.501242 5.359988 -66.284773 -0.000001 0.000000 -0.000000 -9.743470 3.188421 -71.245034 3.320180 5.277115 -64.331585 0.000001 0.000001 -0.000009 -0.000000 -0.000002 0.000005 -26.580207 34.677369 17.414764 -50.475433 16.451064 18.891098 0.000019 120.428721 -0.000025 -61.689032 -7.674617 -2.795713 -3.886699 -9.716136 -1.314832 23.587898 -11.969097 -20.235118 0.000001 -0.000000 -0.000001 -0.744332 3.455516 7.737817 0.530602 -2.160748 27.590966 -0.000001 0.000000 0.000002 4.556545 -8.704729 44.911871 6.316258 -4.352244 110.890805 0.000001 0.000001 -0.000000 -1.564718 -3.509579 54.274254 5.589751 -4.563039 101.563970 0.000002 0.000001 0.000002 -3.841992 -3.745936 67.216547 4.384380 -4.649196 86.638149 0.000001 -0.000000 0.000000 -0.000001 0.000000 -0.000001 -0.000001 0.000001 0.000003 -0.000001 0.000001 0.000003 -0.000001 0.000001 0.000003 -0.000001 0.000001 0.000003 -0.000001 0.000001 0.000002 -0.000001 -0.000001 -0.000002 -0.000001 0.000001 0.000003 -0.000001 0.000001 0.000002 -0.000001 -0.000001 -0.000002 0.000000 -0.000000 -0.000001 0.000000 -0.000000 -0.000001 -0.000000 -0.000000 0.000003 
-3.705891 11.316277 1.379990 89.643439 -10.193370 33.252185 0.000000 -0.000000 0.000000 -7.991093 32.478304 14.275407 23.366395 8.434998 -5.214072 -27.651437 28.668691 30.942051 0.000000 0.000000 -0.000001 0.000000 0.000000 -0.000001 -0.000001 -0.000003 0.000002 -48.714292 -30.721064 -46.775721 49.995007 5.725825 -3.873759 9.174807 22.332630 3.813018 -0.000003 0.000002 0.000002 -0.000003 0.000002 0.000002 0.000002 0.000003 -0.000002 4.344450 0.407754 -2.236017 -5.519268 -5.479473 1.714046 -5.021995 -5.717343 0.919903 -32.784877 -3.549563 17.959197 -9.249055 21.599732 2.755189 -0.000000 0.000001 -0.000002 -0.000000 0.000001 -0.000002 -0.000000 0.000001 -0.000002 -29.044317 -32.312030 34.247788 -56.289638 2.710454 -22.638225 0.000485 -101.097018 0.000467 -112.448970 -35.741386 48.408986 3.966455 6.407810 3.858190 18.089747 -0.423205 7.304038 -0.000000 -0.000000 0.000002 -1.195629 2.059016 -32.369721 2.968043 5.093635 -60.436813 -0.000001 0.000000 -0.000000 0.723918 5.577417 -48.416578 3.838839 5.495300 -69.852577 0.000004 0.000001 -0.000001 -0.768174 5.145585 -58.682233 3.484458 5.352608 -66.104907 0.000006 0.000002 -0.000004 -9.477646 3.438291 -71.823824 3.302147 5.268430 -64.135217 -0.000001 -0.000003 -0.000002 -0.000000 0.000002 -0.000000 -25.716320 33.020976 18.072631 -49.010442 19.032245 17.419532 0.000032 119.976398 -0.000021 -61.185415 -5.424585 -5.826438 -3.881624 -9.472865 -1.132998 23.227064 -11.483605 -20.371840 -0.000000 0.000001 0.000000 -0.693940 3.472371 7.268999 0.508024 -2.117021 26.986043 -0.000001 0.000001 0.000000 4.472329 -8.719949 43.999536 6.305632 -4.356258 110.750739 0.000001 0.000001 -0.000000 -1.460452 -3.501304 53.365060 5.561909 -4.568617 101.214258 -0.000003 -0.000001 -0.000002 -3.298653 -3.764796 65.577261 4.347428 -4.646886 86.182350 0.000001 0.000001 0.000000 0.000001 0.000000 0.000000 0.000000 0.000001 0.000003 0.000000 0.000001 0.000003 0.000000 0.000001 0.000003 0.000000 0.000001 0.000003 0.000000 0.000001 0.000001 -0.000000 0.000001 -0.000000 0.000000 0.000001 0.000003 0.000000 0.000001 0.000001 -0.000000 0.000001 -0.000000 0.000001 -0.000001 0.000003 0.000001 -0.000001 0.000003 0.000000 -0.000000 0.000000 
-3.533661 11.294868 1.759445 90.339934 -10.547164 34.946058 -0.000000 -0.000000 0.000001 -8.996047 33.164281 14.591017 21.459899 9.395045 -3.911131 -28.451027 28.541646 30.864081 0.000001 0.000001 -0.000001 0.000001 0.000001 -0.000002 -0.000000 0.000003 0.000001 -50.142143 -30.568850 -48.046371 49.287697 6.380213 -4.008337 8.614101 20.624079 4.746308 -0.000001 0.000001 -0.000002 -0.000001 0.000001 -0.000002 0.000000 -0.000001 -0.000000 4.095039 1.210606 -2.179272 -5.643323 -5.257933 1.518674 -5.138187 -5.497936 0.718337 -32.714137 -3.615284 18.089413 -8.746621 21.412192 2.005636 0.000001 0.000001 -0.000003 0.000001 0.000001 -0.000003 0.000001 0.000001 -0.000003 -29.523486 -31.092800 34.581183 -57.935973 0.752365 -26.436985 0.001225 -95.048885 0.001174 -116.603979 -30.984204 42.036509 4.388167 6.693012 3.622278 18.069061 -0.759035 7.444335 -0.000002 0.000001 -0.000001 -1.316580 1.781653 -31.780939 2.970312 5.094918 -60.462330 -0.000003 0.000000 -0.000002 1.083081 5.884320 -48.055107 3.717780 5.449568 -68.583343 0.000003 0.000000 0.000000 -0.804950 5.055485 -57.913918 3.400987 5.315016 -65.207072 -0.000001 0.000003 -0.000000 -9.784571 3.310537 -71.740544 3.260603 5.248180 -63.682041 0.000001 -0.000001 -0.000004 -0.000001 -0.000001 0.000002 -25.000729 31.267028 19.218252 -47.782098 23.922504 16.544303 0.000032 118.723414 -0.000045 -59.807855 -4.408088 -11.660050 -3.276444 -9.343419 -0.335326 22.844444 -11.303616 -20.455307 -0.000001 0.000001 -0.000001 -0.664346 3.542453 6.932102 0.498106 -2.097425 26.716099 0.000001 0.000000 0.000000 4.304700 -8.621125 43.315748 6.295212 -4.360181 110.613589 -0.000000 0.000001 -0.000004 -1.364644 -3.498901 52.541620 5.548134 -4.571335 101.041208 -0.000000 0.000000 0.000006 -2.755474 -3.817660 63.919110 4.315558 -4.644654 85.788638 0.000001 -0.000000 0.000002 -0.000002 -0.000001 -0.000001 -0.000000 0.000001 -0.000001 -0.000000 0.000001 -0.000001 -0.000000 0.000001 -0.000001 -0.000000 0.000001 -0.000001 -0.000000 0.000001 -0.000001 -0.000002 0.000001 0.000002 -0.000000 0.000001 -0.000001 -0.000000 0.000001 -0.000001 -0.000002 0.000001 0.000002 -0.000000 0.000000 -0.000001 -0.000000 0.000000 -0.000001 -0.000000 -0.000000 0.000001 
-3.369007 11.244240 2.086342 90.801798 -11.379788 36.429336 -0.000000 -0.000001 0.000001 -9.845310 33.869276 16.296282 20.350957 8.662722 -4.441527 -27.185476 28.117498 30.893659 0.000002 0.000001 0.000000 0.000002 0.000001 -0.000000 -0.000000 0.000003 -0.000001 -51.003051 -30.734291 -49.068765 48.343218 7.212344 -4.094968 7.791959 18.602843 5.919834 -0.000001 -0.000000 0.000002 -0.000001 -0.000000 0.000002 0.000001 -0.000000 0.000001 4.052581 2.241324 -2.221645 -5.682902 -4.970962 1.372096 -5.167068 -5.212607 0.562609 -32.652300 -3.685797 18.158396 -8.334243 21.345647 1.619947 -0.000002 -0.000001 -0.000000 -0.000002 -0.000001 -0.000000 -0.000002 -0.000001 -0.000000 -29.839454 -30.058553 34.937521 -59.746089 -1.570621 -31.264723 -0.000576 -88.209707 -0.000601 -119.770304 -25.484687 35.703035 5.553445 6.946853 3.139903 17.755266 -1.306277 7.705668 0.000002 0.000003 -0.000001 -1.498538 1.331782 -30.819477 2.980131 5.100451 -60.572918 -0.000004 -0.000001 -0.000004 1.273385 6.048809 -47.801875 3.564480 5.387200 -66.959944 0.000004 -0.000000 0.000004 -0.952629 4.887842 -57.094538 3.253127 5.244472 -63.600112 -0.000003 0.000001 0.000002 -10.264366 2.931223 -70.991183 3.208748 5.222327 -63.113591 -0.000003 0.000000 -0.000000 -0.000001 -0.000000 0.000000 -24.559277 29.626646 21.051338 -46.196777 27.893615 16.220530 0.000031 117.708489 -0.000037 -57.344998 -4.372256 -17.242896 -2.108064 -9.272602 0.986342 22.384055 -11.331530 -20.505664 -0.000002 0.000000 -0.000000 -0.651775 3.664184 6.702740 0.503246 -2.107626 26.856637 -0.000000 0.000002 0.000002 4.092889 -8.440471 42.906036 6.286469 -4.363458 110.498582 0.000001 0.000001 0.000003 -1.283128 -3.510304 51.958632 5.539845 -4.572950 100.937246 0.000000 -0.000001 0.000002 -2.300119 -3.892565 62.542895 4.289349 -4.642691 85.464996 -0.000000 -0.000000 -0.000002 -0.000003 0.000000 -0.000001 0.000000 0.000001 0.000000 0.000000 0.000001 0.000000 0.000000 0.000001 0.000000 0.000000 0.000001 0.000000 0.000000 0.000001 -0.000000 0.000000 0.000001 -0.000000 0.000000 0.000001 0.000000 0.000000 0.000001 -0.000000 0.000000 0.000001 -0.000000 -0.000001 -0.000000 0.000002 -0.000001 -0.000000 0.000002 -0.000000 -0.000001 0.000001 
